<svg width="0" height="0" class="hidden">
  <symbol fill="none" xmlns="http://www.w3.org/2000/svg" viewBox="0 0 16 16" id="d1">
    <path d="M13 1C14.1046 1 15 1.89543 15 3V13C15 14.1046 14.1046 15 13 15H3C1.89543 15 1 14.1046 1 13V3C1 1.89543 1.89543 1 3 1H13ZM3 0C1.34315 0 0 1.34315 0 3V13C0 14.6569 1.34315 16 3 16H13C14.6569 16 16 14.6569 16 13V3C16 1.34315 14.6569 0 13 0H3Z" fill="currentColor"></path>
  </symbol>
  <symbol xmlns="http://www.w3.org/2000/svg" fill="none" stroke="currentColor" stroke-width="2" stroke-linecap="round" stroke-linejoin="round" viewBox="0 0 24 24" id="d2">
    <rect x="3" y="3" width="7" height="7"></rect>
    <rect x="14" y="3" width="7" height="7"></rect>
    <rect x="14" y="14" width="7" height="7"></rect>
    <rect x="3" y="14" width="7" height="7"></rect>
  </symbol>
  <symbol enable-background="new 0 0 32 32" id="d3" version="1.1" xml:space="preserve" xmlns="http://www.w3.org/2000/svg" xmlns:xlink="http://www.w3.org/1999/xlink" viewBox="0 0 32 32">
    <g id="Apps">
      <path d="M6,0H2C0.895,0,0,0.896,0,2v4c0,1.105,0.895,2,2,2h4c1.105,0,2-0.895,2-2V2C8,0.896,7.105,0,6,0z M6,6H2V2   h4V6z" fill="currentColor"></path>
      <path d="M18,0h-4c-1.105,0-2,0.896-2,2v4c0,1.105,0.895,2,2,2h4c1.104,0,2-0.895,2-2V2C20,0.896,19.104,0,18,0z    M18,6h-4V2h4V6z" fill="currentColor"></path>
      <path d="M30,0h-4c-1.105,0-2,0.896-2,2v4c0,1.105,0.895,2,2,2h4c1.104,0,2-0.895,2-2V2C32,0.896,31.104,0,30,0z    M30,6h-4V2h4V6z" fill="currentColor"></path>
      <path clip-rule="evenodd" d="M6,12H2c-1.105,0-2,0.895-2,2v4c0,1.105,0.895,2,2,2h4   c1.105,0,2-0.895,2-2v-4C8,12.896,7.105,12,6,12z M6,18H2v-4h4V18z" fill="currentColor" fill-rule="evenodd"></path>
      <path clip-rule="evenodd" d="M18,12h-4c-1.105,0-2,0.895-2,2v4c0,1.105,0.895,2,2,2h4   c1.104,0,2-0.895,2-2v-4C20,12.896,19.104,12,18,12z M18,18h-4v-4h4V18z" fill="currentColor" fill-rule="evenodd"></path>
      <path clip-rule="evenodd" d="M30,12h-4c-1.105,0-2,0.895-2,2v4c0,1.105,0.895,2,2,2h4   c1.104,0,2-0.895,2-2v-4C32,12.896,31.104,12,30,12z M30,18h-4v-4h4V18z" fill="currentColor" fill-rule="evenodd"></path>
      <path clip-rule="evenodd" d="M6,24H2c-1.105,0-2,0.895-2,2v4c0,1.105,0.895,2,2,2h4   c1.105,0,2-0.895,2-2v-4C8,24.896,7.105,24,6,24z M6,30H2v-4h4V30z" fill="currentColor" fill-rule="evenodd"></path>
      <path clip-rule="evenodd" d="M18,24h-4c-1.105,0-2,0.895-2,2v4c0,1.105,0.895,2,2,2h4   c1.104,0,2-0.895,2-2v-4C20,24.896,19.104,24,18,24z M18,30h-4v-4h4V30z" fill="currentColor" fill-rule="evenodd"></path>
      <path clip-rule="evenodd" d="M30,24h-4c-1.105,0-2,0.895-2,2v4c0,1.105,0.895,2,2,2h4   c1.104,0,2-0.895,2-2v-4C32,24.896,31.104,24,30,24z M30,30h-4v-4h4V30z" fill="currentColor" fill-rule="evenodd"></path>
    </g>
    <g></g>
    <g></g>
    <g></g>
    <g></g>
    <g></g>
    <g></g>
  </symbol>
</svg>